<svg width="157" height="301" viewBox="0 0 157 301" fill="none" xmlns="http://www.w3.org/2000/svg">
<path fill-rule="evenodd" clip-rule="evenodd" d="M414.645 252.724C397.642 236.444 374.454 216.355 348.56 210.424C340.455 208.567 332.083 208.098 323.552 209.566C317.432 208.317 311.164 207.874 304.797 208.471C304.187 208.315 303.576 208.167 302.964 208.027C298.35 206.97 293.65 206.362 288.883 206.306C286.626 205.567 284.345 204.928 282.042 204.4C281.325 204.236 280.605 204.082 279.883 203.94C263.701 189.11 243.119 173.085 220.465 167.896C207.509 164.929 193.871 165.504 179.996 171.874C166.123 178.242 152.035 190.393 138.158 210.536C105.837 257.453 105.148 300.412 104.618 333.464L104.618 333.466L104.617 333.494C104.568 336.553 104.52 339.526 104.449 342.411C104.026 359.46 102.775 373.299 95.6448 383.099C88.5298 392.878 75.4951 398.712 51.2981 399.547L51.2977 400.136C75.5439 399.3 88.8007 393.452 96.0775 383.45C103.339 373.469 104.58 359.427 105.002 342.407C105.073 339.511 105.121 336.527 105.171 333.459C105.702 300.412 106.391 257.63 138.6 210.874C152.432 190.796 166.445 178.729 180.2 172.414C193.953 166.101 207.471 165.527 220.332 168.473C242.521 173.555 262.743 189.109 278.794 203.734C278.272 203.64 277.748 203.551 277.223 203.469C276.368 203.102 275.509 202.748 274.645 202.407C261.847 192.586 247.341 183.987 231.869 180.443C218.912 177.476 205.275 178.051 191.399 184.421C177.527 190.79 163.438 202.94 149.562 223.083C117.241 270 116.551 312.959 116.021 346.011L116.021 346.017L116.021 346.027C115.971 349.091 115.924 352.069 115.852 354.958C115.43 372.007 114.178 385.846 107.048 395.646C99.933 405.425 86.8983 411.26 62.7012 412.095L62.7008 412.684C86.947 411.847 100.204 405.999 107.481 395.998C114.742 386.016 115.983 371.975 116.405 354.954C116.476 352.088 116.523 349.135 116.572 346.1L116.573 346.074L116.573 346.064L116.573 346.057L116.573 346.037L116.573 346.031L116.574 346.011L116.574 346.006C117.106 312.959 117.794 270.177 150.003 223.422C163.836 203.343 177.848 191.276 191.604 184.961C205.356 178.648 218.874 178.074 231.735 181.02C246.473 184.395 260.343 192.391 272.699 201.665C272.521 201.599 272.342 201.534 272.164 201.47C263.897 196.681 255.147 192.859 246.064 190.778C233.108 187.81 219.47 188.386 205.595 194.756C191.722 201.124 177.634 213.275 163.757 233.418C131.436 280.335 130.747 323.294 130.216 356.346C130.167 359.415 130.119 362.399 130.048 365.292C129.625 382.342 128.374 396.181 121.244 405.981C114.129 415.76 101.094 421.594 76.8968 422.429L76.8964 423.018C101.143 422.182 114.399 416.334 121.676 406.332C128.938 396.351 130.179 382.309 130.6 365.289C130.671 362.422 130.719 359.47 130.768 356.435L130.768 356.409L130.769 356.398L130.769 356.392L130.769 356.371L130.769 356.366L130.769 356.346L130.769 356.341C131.301 323.294 131.989 280.512 164.199 233.756C178.031 213.677 192.044 201.611 205.799 195.296C219.552 188.983 233.07 188.409 245.931 191.355C253.957 193.193 261.726 196.402 269.133 200.441C267.08 199.787 265.008 199.216 262.918 198.737C249.962 195.77 236.324 196.345 222.449 202.715C208.576 209.084 194.488 221.234 180.611 241.377C148.29 288.294 147.601 331.253 147.071 364.305C147.021 367.375 146.973 370.358 146.902 373.252C146.479 390.301 145.228 404.14 138.098 413.94C130.983 423.719 117.948 429.554 93.7509 430.389L93.7505 430.978C117.997 430.141 131.254 424.293 138.53 414.292C145.792 404.31 147.033 390.269 147.454 373.248C147.525 370.382 147.573 367.429 147.622 364.394L147.623 364.368L147.623 364.358L147.623 364.351L147.623 364.331L147.623 364.325L147.624 364.305L147.624 364.3C148.155 331.254 148.844 288.471 181.053 241.716C194.885 221.637 208.898 209.57 222.653 203.255C236.406 196.942 249.924 196.368 262.785 199.314C265.873 200.021 268.923 200.931 271.929 202.013C272.488 202.338 273.046 202.667 273.602 203.001C263.215 201.947 252.467 203.377 241.573 208.378C227.7 214.747 213.612 226.897 199.735 247.04C167.414 293.957 166.725 336.916 166.195 369.968L166.194 369.983C166.145 373.047 166.097 376.026 166.026 378.915C165.603 395.964 164.352 409.803 157.222 419.603C150.107 429.382 137.072 435.216 112.875 436.051L112.874 436.641C137.121 435.804 150.377 429.956 157.654 419.954C164.916 409.973 166.157 395.932 166.578 378.911C166.65 376.015 166.698 373.031 166.747 369.963C167.279 336.916 167.967 294.134 200.177 247.379C214.009 227.3 228.022 215.233 241.777 208.918C253.019 203.758 264.103 202.432 274.801 203.729C275.801 204.344 276.795 204.972 277.781 205.612C278.328 206.052 278.873 206.493 279.414 206.936C273.834 207.754 268.184 209.392 262.494 212.004C248.622 218.373 234.533 230.523 220.657 250.666C188.336 297.584 187.646 340.542 187.116 373.595C187.067 376.664 187.019 379.647 186.947 382.541C186.525 399.59 185.273 413.429 178.143 423.229C171.028 433.009 157.993 438.843 133.796 439.678L133.796 440.267C158.042 439.43 171.299 433.582 178.576 423.581C185.838 413.599 187.078 399.558 187.5 382.537C187.571 379.671 187.619 376.718 187.667 373.683L187.668 373.657L187.668 373.647L187.668 373.64L187.669 373.62L187.669 373.614L187.669 373.594L187.669 373.589C188.201 340.543 188.889 297.76 221.099 251.005C234.931 230.926 248.943 218.859 262.699 212.544C268.528 209.868 274.316 208.223 280.029 207.441C282.296 209.31 284.502 211.201 286.642 213.091C286.023 213.353 285.402 213.626 284.782 213.911C270.909 220.28 256.821 232.43 242.944 252.573C210.623 299.49 209.934 342.449 209.403 375.501L209.403 375.503C209.354 378.571 209.306 381.555 209.235 384.448C208.812 401.497 207.56 415.336 200.43 425.136C193.315 434.915 180.281 440.75 156.084 441.585L156.083 442.174C180.329 441.337 193.586 435.489 200.863 425.488C208.125 415.506 209.365 401.465 209.787 384.444C209.859 381.554 209.907 378.576 209.956 375.514L209.956 375.497L209.956 375.496C210.488 342.45 211.176 299.667 243.386 252.912C257.218 232.833 271.231 220.766 284.986 214.451C285.699 214.124 286.411 213.812 287.122 213.516C290.174 216.223 293.088 218.923 295.852 221.544C285.981 228.576 276.064 238.822 266.253 253.064C233.932 299.981 233.243 342.94 232.712 375.992L232.712 375.999L232.712 376.005L232.712 376.01C232.663 379.073 232.615 382.051 232.544 384.938C232.121 401.988 230.87 415.827 223.74 425.627C216.625 435.406 203.59 441.24 179.393 442.075L179.392 442.664C203.639 441.828 216.895 435.98 224.172 425.978C231.434 415.997 232.674 401.955 233.096 384.934C233.168 382.041 233.216 379.059 233.265 375.993L233.265 375.987C233.797 342.94 234.485 300.158 266.695 253.402C276.515 239.147 286.427 228.93 296.272 221.943C296.711 222.36 297.146 222.775 297.577 223.187L297.954 222.743C297.558 222.364 297.159 221.984 296.757 221.601C297.127 221.343 297.497 221.089 297.867 220.839C302.849 225.113 307.503 229.434 311.772 233.522L312.149 233.078C307.921 229.029 303.31 224.745 298.37 220.502C299.473 219.77 300.574 219.078 301.674 218.424C311.72 225.742 320.816 234.003 328.626 241.481L329.003 241.037C321.252 233.616 312.216 225.403 302.224 218.101C303.958 217.091 305.689 216.176 307.417 215.353C322.832 224.199 336.6 236.468 347.75 247.144L348.127 246.7C337.07 236.113 323.397 223.915 308.065 215.048C308.142 215.012 308.219 214.977 308.295 214.942C310.467 213.945 312.633 213.091 314.791 212.372C335.7 220.708 354.346 237.055 368.672 250.77L369.049 250.326C354.879 236.759 336.413 220.546 315.666 212.087C318.298 211.253 320.92 210.617 323.526 210.164C324.058 210.273 324.588 210.389 325.118 210.51C350.858 216.406 373.953 236.395 390.959 252.677L391.336 252.233C374.333 235.953 351.145 215.865 325.251 209.933L325.136 209.907C333.07 208.753 340.862 209.268 348.427 211C374.168 216.896 397.262 236.886 414.268 253.168L414.645 252.724ZM279.623 204.492L279.454 204.459C279.544 204.5 279.633 204.541 279.721 204.582L279.623 204.492ZM282.496 207.155C283.751 208.331 284.977 209.495 286.173 210.64L286.55 210.196C285.482 209.173 284.39 208.135 283.273 207.087C283.341 207.082 283.409 207.076 283.477 207.071C286.079 208.407 288.638 209.851 291.151 211.38C290.228 211.691 289.303 212.026 288.377 212.387C286.081 210.636 283.73 208.925 281.329 207.277C281.718 207.233 282.107 207.192 282.496 207.155ZM281.582 206.302L281.925 206.622C281.481 206.668 281.037 206.719 280.593 206.775C279.769 206.216 278.94 205.665 278.105 205.123C277.629 204.741 277.151 204.361 276.671 203.982C276.802 204.002 276.932 204.022 277.063 204.042C278.443 204.636 279.813 205.263 281.171 205.921C281.308 206.048 281.445 206.175 281.582 206.302ZM281.485 205.417C281.234 205.184 280.981 204.95 280.727 204.716C281.122 204.8 281.516 204.887 281.909 204.977C283.597 205.363 285.274 205.811 286.938 206.313C285.829 206.335 284.716 206.388 283.6 206.472C282.898 206.112 282.193 205.761 281.485 205.417ZM287.241 212.842C285.839 211.601 284.409 210.359 282.951 209.123C284.572 210.27 286.169 211.444 287.741 212.638C287.574 212.705 287.407 212.773 287.241 212.842ZM296.337 221.202C293.61 218.614 290.734 215.947 287.722 213.269L287.842 213.221L287.937 213.182C288.002 213.157 288.066 213.131 288.131 213.105L288.277 213.047C291.43 215.459 294.48 217.947 297.418 220.455C297.058 220.7 296.697 220.949 296.337 221.202ZM297.921 220.117C299.005 219.393 300.088 218.707 301.17 218.059C298.129 215.861 295.002 213.751 291.799 211.777C290.839 212.091 289.878 212.431 288.916 212.799C292.022 215.185 295.027 217.643 297.921 220.117ZM291.883 211.138C289.499 209.676 287.073 208.288 284.607 206.994C286.003 206.912 287.395 206.88 288.78 206.894C291.388 207.75 293.963 208.739 296.504 209.842C294.968 210.209 293.427 210.64 291.883 211.138ZM301.719 217.733C298.739 215.571 295.674 213.492 292.534 211.541C294.159 211.031 295.78 210.597 297.396 210.235C300.593 211.661 303.733 213.265 306.809 215.007C305.115 215.827 303.418 216.735 301.719 217.733ZM307.834 214.52L307.945 214.469L308.091 214.402C310.051 213.502 312.006 212.718 313.955 212.043C310.927 210.87 307.853 209.867 304.738 209.067C302.624 209.268 300.5 209.585 298.367 210.026C301.453 211.432 304.485 213.002 307.455 214.697C307.582 214.638 307.708 214.579 307.834 214.52ZM297.467 209.621C299.342 209.206 301.21 208.887 303.07 208.658L302.967 208.634L302.831 208.603C298.868 207.695 294.843 207.122 290.768 206.947C293.027 207.746 295.261 208.641 297.467 209.621ZM314.824 211.749C312.085 210.663 309.306 209.714 306.493 208.926C311.728 208.583 316.893 208.939 321.963 209.861C319.594 210.335 317.214 210.961 314.824 211.749ZM211.646 153.526C237.54 159.457 260.728 179.546 277.731 195.826L277.354 196.27C260.349 179.988 237.254 159.999 211.513 154.103C198.652 151.157 185.134 151.731 171.381 158.044C157.626 164.359 143.613 176.426 129.781 196.505C97.5715 243.26 96.8832 286.042 96.3516 319.089C96.3022 322.157 96.2542 325.141 96.1825 328.037C95.7607 345.058 94.5202 359.099 87.2584 369.081C79.9816 379.082 66.7248 384.93 42.4786 385.767L42.479 385.178C66.676 384.342 79.7107 378.508 86.8257 368.729C93.9557 358.929 95.2073 345.09 95.6298 328.041C95.7014 325.15 95.7493 322.169 95.7984 319.103L95.7986 319.094C96.329 286.042 97.0183 243.083 129.339 196.166C143.216 176.023 157.304 163.873 171.177 157.504C185.052 151.134 198.69 150.559 211.646 153.526ZM271.017 180.115C254.014 163.835 230.826 143.746 204.932 137.815C191.975 134.848 178.338 135.423 164.462 141.793C150.59 148.162 136.501 160.312 122.625 180.455C90.3037 227.372 89.6144 270.331 89.084 303.383C89.0347 306.453 88.9869 309.436 88.9152 312.33C88.4927 329.379 87.2411 343.218 80.1111 353.018C72.9961 362.797 59.9614 368.632 35.7643 369.467L35.7639 370.056C60.0102 369.219 73.267 363.371 80.5437 353.37C87.8056 343.388 89.0461 329.347 89.4679 312.326C89.5393 309.441 89.5872 306.469 89.6364 303.414L89.6369 303.383L89.637 303.378C90.1686 270.331 90.8569 227.549 123.067 180.794C136.899 160.715 150.911 148.648 164.667 142.333C178.42 136.02 191.937 135.446 204.799 138.392C230.539 144.288 253.634 164.277 270.64 180.559L271.017 180.115ZM199.731 121.208C225.625 127.14 248.813 147.229 265.816 163.508L265.439 163.952C248.433 147.67 225.338 127.681 199.598 121.785C186.737 118.839 173.219 119.413 159.466 125.726C145.711 132.041 131.698 144.108 117.866 164.187C85.6562 210.942 84.9678 253.725 84.4362 286.771C84.3868 289.839 84.3388 292.823 84.2671 295.719C83.8453 312.74 82.6048 326.781 75.343 336.763C68.0662 346.764 54.8094 352.612 30.5632 353.449L30.5635 352.86C54.7606 352.025 67.7953 346.191 74.9103 336.411C82.0403 326.611 83.2919 312.772 83.7144 295.723C83.7861 292.829 83.834 289.846 83.8832 286.776C84.4136 253.724 85.1029 210.765 117.424 163.848C131.3 143.705 145.389 131.555 159.262 125.186C173.137 118.816 186.775 118.241 199.731 121.208ZM261.557 146.375C244.554 130.095 221.367 110.006 195.472 104.075C182.516 101.108 168.878 101.683 155.003 108.053C141.13 114.422 127.042 126.572 113.165 146.715C80.8444 193.632 80.1551 236.591 79.6247 269.643C79.5755 272.713 79.5276 275.696 79.4559 278.59C79.0334 295.639 77.7818 309.478 70.6518 319.278C63.5368 329.057 50.5021 334.892 26.305 335.727L26.3046 336.316C50.5508 335.479 63.8077 329.631 71.0845 319.63C78.3463 309.648 79.5868 295.607 80.0086 278.586C80.0803 275.69 80.1283 272.706 80.1777 269.638C80.7093 236.592 81.3976 193.809 113.607 147.054C127.439 126.975 141.452 114.908 155.207 108.593C168.96 102.28 182.478 101.706 195.339 104.652C221.08 110.548 244.175 130.537 261.18 146.819L261.557 146.375ZM191.675 86.6927C217.569 92.6238 240.757 112.713 257.76 128.992L257.383 129.437C240.377 113.154 217.282 93.1651 191.541 87.2692C178.68 84.3234 165.163 84.8972 151.41 91.2107C137.654 97.5254 123.642 109.592 109.81 129.671C77.5999 176.427 76.9116 219.209 76.3799 252.255C76.3306 255.323 76.2825 258.308 76.2108 261.203C75.789 278.224 74.5485 292.266 67.2867 302.247C60.0099 312.249 46.7531 318.096 22.5069 318.933L22.5073 318.344C46.7043 317.509 59.739 311.675 66.8541 301.895C73.984 292.095 75.2356 278.256 75.6581 261.207C75.7298 258.314 75.7777 255.33 75.8269 252.261C76.3573 219.208 77.0467 176.25 109.368 129.332C123.244 109.189 137.333 97.039 151.205 90.6705C165.081 84.3007 178.718 83.7251 191.675 86.6927ZM254.039 111.57C237.036 95.2904 213.849 75.2015 187.954 69.2704C174.998 66.3028 161.361 66.8784 147.485 73.2481C133.612 79.6167 119.524 91.767 105.648 111.91C73.3264 158.827 72.6371 201.786 72.1067 234.838C72.0575 237.908 72.0096 240.891 71.9379 243.785C71.5154 260.834 70.2638 274.673 63.1338 284.473C56.0188 294.252 42.9841 300.087 18.787 300.922L18.7867 301.511C43.0329 300.674 56.2897 294.826 63.5665 284.825C70.8283 274.843 72.0688 260.802 72.4906 243.781C72.5623 240.885 72.6103 237.901 72.6597 234.833C73.1914 201.787 73.8797 159.004 106.089 112.249C119.922 92.1698 133.934 80.103 147.689 73.7883C161.442 67.4748 174.96 66.9011 187.821 69.8469C213.562 75.7427 236.657 95.7321 253.662 112.014L254.039 111.57ZM184.024 51.9579C209.918 57.8889 233.106 77.9779 250.109 94.2575L249.732 94.7018C232.726 78.4195 209.631 58.4302 183.891 52.5344C171.03 49.5885 157.512 50.1623 143.759 56.4758C130.003 62.7905 115.991 74.8573 102.159 94.9361C69.9491 141.692 69.2608 184.474 68.7291 217.521L68.7291 217.526L68.7285 217.556C68.6793 220.612 68.6314 223.584 68.56 226.468C68.1382 243.489 66.8977 257.531 59.6359 267.512C52.3591 277.514 39.1023 283.361 14.8561 284.198L14.8565 283.609C39.0535 282.774 52.0882 276.94 59.2032 267.161C66.3332 257.36 67.5848 243.521 68.0073 226.472C68.0789 223.582 68.1268 220.602 68.1759 217.536L68.176 217.532L68.1761 217.526C68.7065 184.473 69.3958 141.515 101.717 94.5975C115.593 74.4545 129.682 62.3041 143.555 55.9356C157.43 49.5659 171.068 48.9903 184.024 51.9579ZM245.756 77.1756C228.754 60.8961 205.566 40.8071 179.671 34.8761C166.715 31.9084 153.078 32.4841 139.202 38.8538C125.33 45.2223 111.241 57.3726 97.3646 77.5157C65.0436 124.433 64.3542 167.392 63.8239 200.444C63.7746 203.513 63.7267 206.497 63.655 209.39C63.2325 226.44 61.9809 240.279 54.851 250.079C47.736 259.858 34.7012 265.692 10.5042 266.527L10.5038 267.116C34.75 266.28 48.0068 260.432 55.2836 250.43C62.5454 240.449 63.7859 226.407 64.2077 209.387C64.2795 206.491 64.3275 203.507 64.3768 200.439C64.9085 167.392 65.5968 124.61 97.8064 77.8543C111.639 57.7754 125.651 45.7087 139.407 39.394C153.159 33.0805 166.677 32.5067 179.538 35.4526C205.279 41.3484 228.374 61.3377 245.38 77.62L245.756 77.1756ZM174.752 18.1115C200.646 24.0425 223.834 44.1315 240.837 60.4111L240.46 60.8554C223.454 44.5731 200.359 24.5838 174.619 18.688C161.758 15.7422 148.24 16.3159 134.487 22.6294C120.732 28.9441 106.719 41.0109 92.8869 61.0897C60.6772 107.845 59.9889 150.628 59.4573 183.674C59.4079 186.742 59.3599 189.726 59.2881 192.622C58.8664 209.643 57.6259 223.684 50.364 233.666C43.0872 243.667 29.8304 249.515 5.58423 250.352L5.58461 249.763C29.7817 248.928 42.8164 243.094 49.9314 233.314C57.0614 223.514 58.3129 209.675 58.7354 192.626C58.8072 189.732 58.855 186.749 58.9043 183.68C59.4347 150.627 60.124 107.669 92.4451 60.7511C106.321 40.6081 120.41 28.4578 134.283 22.0892C148.158 15.7195 161.796 15.1439 174.752 18.1115ZM235.253 44.0247C218.25 27.7451 195.062 7.65612 169.168 1.72507C156.211 -1.24255 142.574 -0.666934 128.699 5.7028C114.826 12.0713 100.737 24.2216 86.8609 44.3647C54.5398 91.2821 53.8505 134.241 53.3201 167.293C53.2708 170.362 53.223 173.346 53.1513 176.239C52.7287 193.289 51.4772 207.128 44.3472 216.928C37.2322 226.707 24.1975 232.541 0.000403631 233.376L1.7785e-05 233.965C24.2462 233.129 37.5031 227.281 44.7798 217.279C52.0416 207.298 53.2821 193.256 53.7039 176.236C53.7757 173.34 53.8237 170.356 53.8731 167.288C54.4047 134.241 55.093 91.459 87.3027 44.7033C101.135 24.6244 115.147 12.5577 128.903 6.243C142.656 -0.0704889 156.173 -0.644271 169.035 2.30156C194.775 8.19742 217.87 28.1867 234.876 44.469L235.253 44.0247Z" fill="url(#paint0_radial_39_319)" fill-opacity="0.58"/>
<defs>
<radialGradient id="paint0_radial_39_319" cx="0" cy="0" r="1" gradientTransform="matrix(-138.9 147.162 -139.402 -150.263 161.284 192.91)" gradientUnits="userSpaceOnUse">
<stop stop-color="white"/>
<stop offset="1" stop-color="#1E1E1E" stop-opacity="0"/>
<stop offset="1" stop-color="#0E0E35" stop-opacity="0"/>
<stop offset="1" stop-color="white" stop-opacity="0"/>
</radialGradient>
</defs>
</svg>
